<?xml version="1.0" encoding="UTF-8" standalone="no"?>
<!-- Generator: Adobe Illustrator 21.0.2, SVG Export Plug-In . SVG Version: 6.00 Build 0)  -->

<svg
   xmlns:dc="http://purl.org/dc/elements/1.1/"
   xmlns:cc="http://creativecommons.org/ns#"
   xmlns:rdf="http://www.w3.org/1999/02/22-rdf-syntax-ns#"
   xmlns:svg="http://www.w3.org/2000/svg"
   xmlns="http://www.w3.org/2000/svg"
   xmlns:sodipodi="http://sodipodi.sourceforge.net/DTD/sodipodi-0.dtd"
   xmlns:inkscape="http://www.inkscape.org/namespaces/inkscape"
   version="1.1"
   id="Layer_1"
   x="0px"
   y="0px"
   viewBox="0 0 638.58795 224.6141"
   xml:space="preserve"
   sodipodi:docname="pymc4_banner.svg"
   width="638.58795"
   height="224.61411"
   inkscape:version="0.92.3 (2405546, 2018-03-11)"
   inkscape:export-filename="/home/lpaz/repos/lucianopaz.github.io/content/project/pymc4/featured.png"
   inkscape:export-xdpi="225.49753"
   inkscape:export-ydpi="225.49753"><metadata
   id="metadata67"><rdf:RDF><cc:Work
       rdf:about=""><dc:format>image/svg+xml</dc:format><dc:type
         rdf:resource="http://purl.org/dc/dcmitype/StillImage" /><dc:title /></cc:Work></rdf:RDF></metadata><defs
   id="defs65">
		
		
		
		
		
		
	
			
			
			
		
			
			
			
			
		
			
			
			
		</defs><sodipodi:namedview
   pagecolor="#ffffff"
   bordercolor="#666666"
   borderopacity="1"
   objecttolerance="10"
   gridtolerance="10"
   guidetolerance="10"
   inkscape:pageopacity="0"
   inkscape:pageshadow="2"
   inkscape:window-width="1853"
   inkscape:window-height="1014"
   id="namedview63"
   showgrid="false"
   fit-margin-top="9.7"
   fit-margin-right="9.7"
   fit-margin-bottom="9.7"
   fit-margin-left="9.7"
   inkscape:zoom="4.8762488"
   inkscape:cx="121.03685"
   inkscape:cy="-3.291084"
   inkscape:window-x="67"
   inkscape:window-y="38"
   inkscape:window-maximized="1"
   inkscape:current-layer="g1069" />
<style
   type="text/css"
   id="style2">
	.st0{fill:#504A4E;}
	.st1{fill:#12698A;}
	.st2{fill:#12698B;}
	.st3{fill:#524A4E;}
</style>
<g
   id="g60"
   transform="translate(12,13.014099)">
	
	
<g
   id="g1096"
   transform="translate(0,-210)"><g
     id="g1046"><g
       transform="translate(-62,202)"
       id="g921">
			<path
   style="fill:#504a4e"
   inkscape:connector-curvature="0"
   class="st0"
   d="m 138.8,74.8 c -7.9,-4.4 -10.8,-14.4 -6.4,-22.4 4.4,-7.9 14.4,-10.8 22.4,-6.4 7.9,4.4 10.8,14.4 6.4,22.4 -4.4,7.9 -14.4,10.8 -22.4,6.4 z m 14.6,-26.3 c -6.6,-3.6 -14.9,-1.3 -18.5,5.3 -3.6,6.6 -1.3,14.9 5.3,18.5 6.6,3.6 14.9,1.3 18.5,-5.3 3.6,-6.6 1.2,-14.9 -5.3,-18.5 z"
   id="path915" />
			<path
   style="fill:#12698a"
   inkscape:connector-curvature="0"
   class="st1"
   d="m 152,50.6 c 0,0 -8.8,-1 -15.4,6.3 -0.1,0 4.4,-9.7 15.4,-6.3 z"
   id="path917" />
			<path
   style="fill:#12698a"
   inkscape:connector-curvature="0"
   class="st1"
   d="m 152.2,53.9 c 0,0 -6.6,-0.8 -11.5,4.7 0,0 3.3,-7.2 11.5,-4.7 z"
   id="path919" />
		</g><path
       class="st1"
       d="m 103.2703,345.60899 -38.54024,-0.17391 c -1.252992,0.003 -2.452694,-0.93503 -2.767221,-2.13131 -12.531239,-50.04586 -6.998211,-84.22722 -0.109177,-104.09456 7.57828,-21.72878 18.078393,-31.48622 18.468559,-31.8145 0.517357,-0.51219 1.17909,-0.76141 1.89754,-0.69953 l 4.477426,0.0516 c 0.670325,-0.0258 1.397367,0.25955 1.90956,0.7769 0.464067,0.4297 10.953713,10.18559 18.236013,31.96948 6.67044,19.83823 11.96745,54.00593 -0.92037,104.0894 -0.26814,1.17393 -1.3991,2.023 -2.65209,2.02643 z m -36.24906,-5.7668 34.06281,0.1223 C 122.05901,255.78046 90.846236,218.04436 85.619465,212.47203 l -2.0591,-0.0103 c -2.451003,2.6005 -10.462317,11.9042 -16.376781,29.18306 -6.485111,18.73295 -11.648586,50.88616 -0.162344,98.19743 z"
       id="path951"
       inkscape:connector-curvature="0"
       style="fill:#d04545;fill-opacity:1" /><path
       class="st1"
       d="m 52.829059,365.31613 c -0.08766,0.0481 -0.135783,-0.0395 -0.223441,0.009 -1.077676,-0.0928 -1.997219,-0.72878 -2.438938,-1.74115 l -9.494372,-22.28064 c -0.04812,-0.0877 -0.04812,-0.0877 -0.09625,-0.17532 -9.355115,-26.80619 15.802799,-40.61811 15.978115,-40.71436 1.402532,-0.77001 3.080058,-0.20795 3.850061,1.19458 0.770003,1.40253 0.207949,3.08006 -1.194583,3.85006 v 0 c -0.876583,0.48125 -20.989852,11.6377 -13.379263,33.81176 l 7.189527,17.0435 9.089036,-15.02896 c 0.842214,-1.37501 2.57303,-1.75485 3.899923,-1.0003 1.375019,0.84222 1.754856,2.57303 1.0003,3.89993 l -11.949126,19.79339 c -0.372982,0.77517 -1.201439,1.34408 -2.230989,1.33891 z"
       id="path953"
       inkscape:connector-curvature="0"
       style="fill:#d04545;fill-opacity:1" /><path
       class="st1"
       d="m 115.08848,365.47304 c -1.02955,-0.005 -1.90097,-0.55347 -2.46988,-1.38192 l -11.81818,-19.86405 c -0.857664,-1.35441 -0.34373,-3.1196 0.97114,-3.84147 1.35441,-0.85766 3.11959,-0.34374 3.84147,0.97114 l 8.99598,15.1391 7.31183,-17.01932 c 7.83266,-22.09659 -12.20652,-33.45446 -13.11747,-33.86697 -1.32689,-0.75456 -1.93017,-2.47678 -1.08796,-3.8518 0.75456,-1.32689 2.47678,-1.93017 3.8518,-1.08796 0.27157,0.0791 25.20238,14.11312 15.71449,40.88306 0,0 -0.0395,0.13578 -0.0395,0.13578 l -9.62019,22.16533 c -0.36439,0.99861 -1.36817,1.66377 -2.39772,1.65861 0,0 -0.0877,0.0481 -0.13578,-0.0395 z"
       id="path955"
       inkscape:connector-curvature="0"
       style="fill:#d04545;fill-opacity:1" /></g><g
     id="g1076"><polygon
       id="polygon927"
       points="79.7,159.3 83,161.2 101,128.7 113.2,135.5 95.2,167.9 98.5,169.8 118.4,133.9 99.5,123.5 "
       class="st2"
       style="fill:#d04545;fill-opacity:1"
       transform="rotate(-28.767195,512.06898,283.43102)" /><path
       style="fill:none;fill-opacity:1;stroke:#d04545;stroke-width:3.5;stroke-miterlimit:4;stroke-dasharray:none;stroke-opacity:1"
       id="path1029"
       sodipodi:type="arc"
       sodipodi:cx="53.653847"
       sodipodi:cy="-394.15601"
       sodipodi:rx="32.192307"
       sodipodi:ry="23.781704"
       sodipodi:start="0.84420644"
       sodipodi:end="3.1415927"
       d="m 75.039989,-376.38051 a 32.192307,23.781704 0 0 1 -34.574686,3.91887 32.192307,23.781704 0 0 1 -19.003763,-21.69437"
       transform="scale(1,-1)"
       sodipodi:open="true" /><path
       transform="scale(1,-1)"
       d="m 145.84615,-394.15601 a 32.192307,23.781704 0 0 1 -18.24069,21.4323 32.192307,23.781704 0 0 1 -34.051117,-2.85548"
       sodipodi:end="2.2451049"
       sodipodi:start="0"
       sodipodi:ry="23.781704"
       sodipodi:rx="32.192307"
       sodipodi:cy="-394.15601"
       sodipodi:cx="113.65385"
       sodipodi:type="arc"
       id="path1048"
       style="fill:none;fill-opacity:1;stroke:#d04545;stroke-width:3.5;stroke-miterlimit:4;stroke-dasharray:none;stroke-opacity:1"
       sodipodi:open="true" /><path
       sodipodi:open="true"
       d="m 55.496057,369.19287 a 10.223232,13.848493 0 0 1 11.474777,-6.0149 10.223232,13.848493 0 0 1 7.432447,13.28248"
       sodipodi:end="6.2802938"
       sodipodi:start="3.6974636"
       sodipodi:ry="13.848493"
       sodipodi:rx="10.223232"
       sodipodi:cy="376.50049"
       sodipodi:cx="64.180092"
       sodipodi:type="arc"
       id="path1052"
       style="fill:none;fill-opacity:1;stroke:#d04545;stroke-width:3.5;stroke-miterlimit:4;stroke-dasharray:none;stroke-opacity:1" /><path
       style="fill:none;fill-opacity:1;stroke:#d04545;stroke-width:3.5;stroke-miterlimit:4;stroke-dasharray:none;stroke-opacity:1"
       id="path1054"
       sodipodi:type="arc"
       sodipodi:cx="104.18008"
       sodipodi:cy="376.50049"
       sodipodi:rx="10.223232"
       sodipodi:ry="13.848493"
       sodipodi:start="3.2319735"
       sodipodi:end="5.774129"
       d="m 93.998571,375.25055 a 10.223232,13.848493 0 0 1 8.056989,-12.29622 10.223232,13.848493 0 0 1 11.05149,6.79705"
       sodipodi:open="true" /></g><g
     id="g1069"><circle
       style="fill:none;fill-opacity:1;stroke:#524a4e;stroke-width:3.47071648;stroke-miterlimit:4;stroke-dasharray:none;stroke-opacity:1"
       id="path1056"
       cx="83.5495"
       cy="394.6705"
       r="15.494142" /><path
       class="st3"
       d="m 10.4,382.1 c -7,0 -12.7,5.7 -12.7,12.7 0,7 5.7,12.7 12.7,12.7 7,0 12.7,-5.7 12.7,-12.7 0,-7 -5.7,-12.7 -12.7,-12.7 z m 0,22 c -5.1,0 -9.3,-4.2 -9.3,-9.3 0,-5.1 4.2,-9.3 9.3,-9.3 5.1,0 9.3,4.2 9.3,9.3 0,5.1 -4.2,9.3 -9.3,9.3 z"
       id="path38"
       inkscape:connector-curvature="0"
       style="fill:#524a4e" /><path
       class="st3"
       d="m 156.85,382.1 c -7,0 -12.7,5.7 -12.7,12.7 0,7 5.7,12.7 12.7,12.7 7,0 12.7,-5.7 12.7,-12.7 0,-7 -5.7,-12.7 -12.7,-12.7 z m 0,22 c -5.1,0 -9.3,-4.2 -9.3,-9.3 0,-5.1 4.2,-9.3 9.3,-9.3 5.1,0 9.3,4.2 9.3,9.3 0,5.1 -4.2,9.3 -9.3,9.3 z"
       id="path40"
       inkscape:connector-curvature="0"
       style="fill:#524a4e" /></g></g></g>
<text
   xml:space="preserve"
   style="font-style:normal;font-weight:normal;font-size:212.74542236px;line-height:1.25;font-family:sans-serif;letter-spacing:0px;word-spacing:0px;fill:#d04545;fill-opacity:1;stroke:none;stroke-width:1.38747013"
   x="184.08002"
   y="177.50847"
   id="text879"><tspan
     sodipodi:role="line"
     id="tspan877"
     x="184.08002"
     y="177.50847"
     style="font-style:normal;font-variant:normal;font-weight:normal;font-stretch:normal;font-size:212.74542236px;font-family:Uroob;-inkscape-font-specification:Uroob;fill:#d04545;fill-opacity:1;stroke-width:1.38747013"><tspan
   style="fill:#504a4e;fill-opacity:1;stroke-width:1.38747013"
   id="tspan893">P</tspan><tspan
   style="font-size:166.49641418px;fill:#504a4e;fill-opacity:1;stroke-width:1.38747013"
   id="tspan881">Y</tspan><tspan
   style="fill:#504a4e;fill-opacity:1;stroke-width:1.38747013"
   id="tspan895">MC</tspan>4</tspan></text>

</svg>